<svg xmlns="http://www.w3.org/2000/svg" xmlns:xlink="http://www.w3.org/1999/xlink" width="500" zoomAndPan="magnify" viewBox="0 0 375 374.999991" height="500" preserveAspectRatio="xMidYMid meet" version="1.0"><defs><clipPath id="d31d843d86"><path d="M 10.253906 10.253906 L 364.746094 10.253906 L 364.746094 364.746094 L 10.253906 364.746094 Z M 10.253906 10.253906 " clip-rule="nonzero"/></clipPath><clipPath id="e26739ed0d"><path d="M 187.5 10.253906 C 89.609375 10.253906 10.253906 89.609375 10.253906 187.5 C 10.253906 285.390625 89.609375 364.746094 187.5 364.746094 C 285.390625 364.746094 364.746094 285.390625 364.746094 187.5 C 364.746094 89.609375 285.390625 10.253906 187.5 10.253906 Z M 187.5 10.253906 " clip-rule="nonzero"/></clipPath><clipPath id="279562278b"><path d="M 0.253906 0.253906 L 354.746094 0.253906 L 354.746094 354.746094 L 0.253906 354.746094 Z M 0.253906 0.253906 " clip-rule="nonzero"/></clipPath><clipPath id="5d8fcd8ac2"><path d="M 177.5 0.253906 C 79.609375 0.253906 0.253906 79.609375 0.253906 177.5 C 0.253906 275.390625 79.609375 354.746094 177.5 354.746094 C 275.390625 354.746094 354.746094 275.390625 354.746094 177.5 C 354.746094 79.609375 275.390625 0.253906 177.5 0.253906 Z M 177.5 0.253906 " clip-rule="nonzero"/></clipPath><clipPath id="90af1a4239"><rect x="0" width="355" y="0" height="355"/></clipPath><clipPath id="799d56b4ad"><path d="M 58 65.667969 L 346.75 65.667969 L 346.75 282.417969 L 58 282.417969 Z M 58 65.667969 " clip-rule="nonzero"/></clipPath></defs><g clip-path="url(#d31d843d86)"><g clip-path="url(#e26739ed0d)"><g transform="matrix(1, 0, 0, 1, 10, 10)"><g clip-path="url(#90af1a4239)"><g clip-path="url(#279562278b)"><g clip-path="url(#5d8fcd8ac2)"><path fill="#0b0b0d" d="M 0.253906 0.253906 L 354.746094 0.253906 L 354.746094 354.746094 L 0.253906 354.746094 Z M 0.253906 0.253906 " fill-opacity="1" fill-rule="nonzero"/></g></g></g></g></g></g><g clip-path="url(#799d56b4ad)"><path fill="#ffffff" d="M 117.816406 146 L 58 282.167969 L 114.523438 282.167969 L 346.773438 143.019531 L 142.640625 218.167969 L 174.339844 146 Z M 181.335938 130.089844 L 202.699219 178.707031 L 251.339844 160.804688 L 209.597656 65.753906 L 153.074219 65.753906 Z M 226.898438 233.839844 L 248.144531 282.167969 L 304.667969 282.167969 L 271.648438 207.019531 Z M 226.898438 233.839844 " fill-opacity="1" fill-rule="evenodd"/></g></svg>